<?xml version="1.0" standalone="no"?>
<!DOCTYPE svg PUBLIC "-//W3C//DTD SVG 20010904//EN"
 "http://www.w3.org/TR/2001/REC-SVG-20010904/DTD/svg10.dtd">
<svg version="1.0" xmlns="http://www.w3.org/2000/svg"
 width="1024.000000pt" height="1024.000000pt" viewBox="0 0 1024.000000 1024.000000"
 preserveAspectRatio="xMidYMid meet">

<g transform="translate(0.000000,1024.000000) scale(0.100000,-0.100000)"
fill="currentcolor" stroke="none">
<path d="M5068 8925 c-31 -17 -40 -43 -154 -430 -42 -143 -107 -366 -145 -495
-38 -129 -68 -241 -67 -249 2 -9 124 66 350 217 191 128 350 236 353 242 5 8
-38 164 -176 632 -16 55 -25 71 -49 83 -36 19 -77 19 -112 0z"/>
<path d="M5036 7700 c-236 -159 -433 -293 -438 -298 -5 -5 -58 -177 -119 -383
-176 -595 -172 -580 -160 -592 7 -7 210 123 676 433 367 244 668 448 671 452
3 4 -38 156 -91 338 -52 182 -95 333 -95 335 0 3 -3 5 -7 5 -5 -1 -201 -131
-437 -290z"/>
<path d="M5484 6924 c-137 -92 -474 -318 -749 -502 -275 -184 -506 -340 -513
-346 -7 -7 -79 -235 -161 -507 -173 -578 -166 -553 -149 -543 111 67 2024
1349 2026 1358 3 11 -193 695 -202 703 -2 2 -115 -72 -252 -163z"/>
<path d="M5775 6002 c-1587 -1066 -1954 -1316 -1964 -1340 -25 -54 -202 -647
-199 -667 3 -23 180 -145 211 -145 11 0 56 23 101 52 142 91 2270 1510 2284
1523 11 10 -2 65 -74 311 -47 164 -93 324 -101 354 -8 30 -18 58 -21 61 -4 3
-110 -64 -237 -149z"/>
<path d="M6110 5094 c-96 -65 -524 -352 -950 -639 -426 -287 -840 -566 -920
-619 -79 -53 -216 -133 -305 -178 -299 -151 -460 -263 -626 -435 -57 -60 -134
-151 -172 -203 -79 -112 -175 -299 -216 -425 -122 -370 -118 -806 10 -1160 21
-59 44 -101 65 -123 l32 -32 728 0 729 0 1 153 c3 383 109 653 353 898 131
131 252 206 424 264 156 52 208 55 1030 55 558 0 757 3 757 11 0 7 -48 172
-106 368 -148 499 -307 1034 -412 1386 -205 689 -237 795 -242 795 -3 0 -84
-52 -180 -116z"/>
<path d="M5665 2333 c-26 -294 -55 -452 -110 -614 -42 -121 -116 -277 -174
-367 -23 -34 -41 -65 -41 -67 0 -3 459 -5 1021 -5 l1021 0 29 29 c19 20 29 40
29 60 0 16 -38 155 -85 308 -47 153 -115 378 -152 501 l-67 222 -732 0 -732 0
-7 -67z"/>
</g>
</svg>
