<svg xmlns="http://www.w3.org/2000/svg" width="210" height="180" viewBox="0 0 210 180" fill="none">
<rect y="30" width="30" height="30" fill="#000080"/>
<rect y="60" width="30" height="30" fill="#000080"/>
<rect x="30" y="60" width="30" height="30" fill="#000080"/>
<rect x="30" y="90" width="30" height="30" fill="#000080"/>
<rect x="30" width="30" height="30" fill="#000080"/>
<rect x="60" width="30" height="30" fill="#000080"/>
<rect x="60" y="30" width="30" height="30" fill="#000080"/>
<rect x="60" y="60" width="30" height="30" fill="#000080"/>
<rect x="60" y="90" width="30" height="30" fill="#000080"/>
<rect x="60" y="120" width="30" height="30" fill="#000080"/>
<rect x="90" y="120" width="30" height="30" fill="#000080"/>
<rect x="90" y="150" width="30" height="30" fill="#000080"/>
<rect x="120" y="120" width="30" height="30" fill="#000080"/>
<rect x="120" y="90" width="30" height="30" fill="#000080"/>
<rect x="120" y="60" width="30" height="30" fill="#000080"/>
<rect x="120" y="30" width="30" height="30" fill="#000080"/>
<rect x="120" width="30" height="30" fill="#000080"/>
<rect x="150" width="30" height="30" fill="#000080"/>
<rect x="150" y="30" width="30" height="30" fill="#000080"/>
<rect x="150" y="60" width="30" height="30" fill="#000080"/>
<rect x="150" y="90" width="30" height="30" fill="#000080"/>
<rect x="180" y="30" width="30" height="30" fill="#000080"/>
<rect x="180" y="60" width="30" height="30" fill="#000080"/>
<rect x="90" y="90" width="30" height="30" fill="#000080"/>
<rect x="90" y="60" width="30" height="30" fill="#000080"/>
<rect x="90" y="30" width="30" height="30" fill="#000080"/>
</svg>